<?xml version="1.0" encoding="UTF-8"?>
<svg width="256" height="256" enable-background="new 2.7 326.5 506.7 181" version="1.1" viewBox="2.7 326.5 256 256" xmlns="http://www.w3.org/2000/svg" xmlns:cc="http://creativecommons.org/ns#" xmlns:dc="http://purl.org/dc/elements/1.1/" xmlns:rdf="http://www.w3.org/1999/02/22-rdf-syntax-ns#">
  <metadata>
    <rdf:RDF>
      <cc:Work rdf:about="">
        <dc:format>image/svg+xml</dc:format>
        <dc:type rdf:resource="http://purl.org/dc/dcmitype/StillImage"/>
        <dc:title/>
      </cc:Work>
    </rdf:RDF>
  </metadata>
  <linearGradient id="a" x1="248.27" x2="152.98" y1="459.14" y2="384.31" gradientUnits="userSpaceOnUse">
    <stop stop-color="#ce8628" offset="0"/>
    <stop stop-color="#f2bd5d" offset="1"/>
  </linearGradient>
  <linearGradient id="b" x1="115.12" x2="82.284" y1="377.02" y2="390.92" gradientUnits="userSpaceOnUse">
    <stop stop-color="#a76a0b" offset="0"/>
    <stop stop-color="#d8922d" offset="1"/>
  </linearGradient>
  <linearGradient id="c" x1="146.73" x2="198.83" y1="381.19" y2="391.88" gradientUnits="userSpaceOnUse">
    <stop stop-color="#aa6c0c" offset="0"/>
    <stop stop-color="#db9733" offset="1"/>
  </linearGradient>
  <filter id="d" x="-.011997" y="-.012003" width="1.024" height="1.024" color-interpolation-filters="sRGB">
    <feGaussianBlur stdDeviation=".90525"/>
  </filter>
  <linearGradient id="e" x1="71.493" x2="225.65" y1="380.31" y2="550.27" gradientUnits="userSpaceOnUse">
    <stop stop-color="#f2bd5d" offset="0"/>
    <stop stop-color="#2b623b" offset="1"/>
  </linearGradient>
  <linearGradient id="f" x1="128.26" x2="128.26" y1="208.31" y2="388.41" gradientUnits="userSpaceOnUse">
    <stop stop-color="#f2bd5d" offset="0"/>
    <stop stop-color="#f2bd5d" stop-opacity=".4" offset="1"/>
  </linearGradient>
  <linearGradient id="g" x1="207.12" x2="107.11" y1="531.22" y2="434.38" gradientUnits="userSpaceOnUse">
    <stop stop-color="#292314" offset="0"/>
    <stop stop-color="#292314" stop-opacity="0" offset="1"/>
  </linearGradient>
  <linearGradient id="h" x1="133.22" x2="190.7" y1="477.39" y2="528.23" gradientUnits="userSpaceOnUse">
    <stop stop-color="#2b623b" offset="0"/>
    <stop stop-color="#2b623b" stop-opacity="0" offset="1"/>
  </linearGradient>
  <path d="m130.7 326.5c-70.691 0-128 57.307-128 128 0 0.54538-0.00653 1.0889 0 1.6326-0.00653 0.0671 0 0.13488 0 0.20408v124.33c0 1.0088 0.70913 1.8367 1.5918 1.8367h124.81c0.0543 6.6e-4 0.1088-6e-4 0.16326 0 0.47597 5e-3 0.95135 0 1.4285 0 0.47721 0 0.95257 5e-3 1.4285 0 0.0529 7e-3 0.10893 0 0.16326 0h124.81c0.88267 0 1.5918-0.82794 1.5918-1.8367v-124.33c0-0.0692 7e-3 -0.13694 0-0.20408 7e-3 -0.54376 0-1.0873 0-1.6326 0-70.692-57.306-128-128-128z" fill="url(#e)"/>
  <path d="m201.46 411.22 56.331 97.092s0.45799 70.529-1.3739 70.071c-1.8319-0.45798-137.85 2.7479-137.85 2.7479l-54.957-39.844z" fill="url(#h)" opacity=".4"/>
  <path d="m130.7 357.85c-53.378 0-96.649 43.272-96.649 96.65 0 0.41181-0.0052 0.8222 0 1.2328-0.0052 0.0507 0 0.10187 0 0.15409v93.876c0 0.76176 0.53544 1.3869 1.2019 1.3869h94.245c0.041 4.8e-4 0.0822-5e-4 0.12329 0h96.525c0.6665 0 1.2019-0.62517 1.2019-1.3869v-93.876c0-0.0522 5e-3 -0.10344 0-0.15409 5e-3 -0.41059 0-0.82098 0-1.2328 0-53.378-43.271-96.65-96.649-96.65z" fill="url(#f)" stroke="url(#g)" stroke-width=".98622"/>
  <g transform="matrix(.855 0 0 .855 21.341 69.196)" fill="#1c1205" filter="url(#d)" opacity=".6">
    <path d="m117.56 376.44-48.9 3.601-27.3 27.5 73.6-5.5c0.9-7.901 1.7-16.001 2.6-25.601z"/>
    <path d="m211.66 394.94-42.3-22.3-37.6 2.8c2.3 9.3 4.3 17.2 6.3 25z"/>
    <path transform="translate(-95.14 46.137)" d="m212.8 391-2.1-28.6-73.6 5.5 10.3 139.6 170.2-12.7-10.3-139.6-73.6 5.5 2.1 28.6z"/>
  </g>
  <g transform="matrix(.855 0 0 .855 19.272 67.393)" stroke="#4c310f" stroke-width="2">
    <path d="m117.56 376.44-48.9 3.601-27.3 27.5 73.6-5.5c0.9-7.901 1.7-16.001 2.6-25.601z" fill="url(#b)"/>
    <path d="m211.66 394.94-42.3-22.3-37.6 2.8c2.3 9.3 4.3 17.2 6.3 25z" fill="url(#c)" stroke-linecap="round" stroke-linejoin="bevel"/>
    <path transform="translate(-95.14 46.137)" d="m212.8 391-2.1-28.6-73.6 5.5 10.3 139.6 170.2-12.7-10.3-139.6-73.6 5.5 2.1 28.6z" fill="url(#a)"/>
  </g>
  <path d="m95.618 522.51c-0.49088-0.38611-0.55141-1.0541-0.13947-1.539 0.15599-0.1836 1.1657-0.64305 2.3245-1.0577 3.6697-1.3131 5.6372-2.1309 7.7507-3.2216 9.1567-4.7253 15.653-12.253 17.478-20.252 0.42363-1.8576 0.39197-4.6581-0.0712-6.3037-0.3513-1.248-0.37284-1.2791-2.1266-3.0731-3.5402-3.6214-5.0719-5.9243-5.8701-8.8252-0.38752-1.4085-0.39113-4.6363-7e-3 -6.4613 1.6721-7.9489 7.7427-15.588 18.204-22.906 4.0379-2.8248 10.068-6.249 11.004-6.249 0.59075 0 0.99594 0.42861 0.99594 1.0535 0 0.26785-0.34533 1.1331-0.78733 1.9727-1.1896 2.2597-2.1366 4.504-3.0787 7.2962-0.75906 2.2496-1.6497 5.9389-1.6497 6.8334v0.33248l0.80615-0.31774c0.47815-0.18847 0.94297-0.27467 1.1426-0.21187 0.18502 0.0582 0.8756 0.61003 1.5346 1.2262 2.8953 2.7072 6.7487 4.125 10.083 3.7096 2.8352-0.3532 7.5995-1.7067 14.236-4.0444 5.0826-1.7904 5.27-1.8222 5.7457-0.97457 0.34089 0.60733 0.12393 1.1894-0.57345 1.5384-0.32365 0.16201-1.6168 0.65801-2.8736 1.1022-14.493 5.1227-19.168 6.798-21.039 7.5393-4.4355 1.7574-9.0355 4.1802-11.601 6.1102-1.2185 0.91666-3.2139 2.804-3.4729 3.2847-0.12452 0.23115 0.0535 0.5029 0.97757 1.4924 4.3948 4.7058 5.5077 8.5308 4.0743 14.003-2.5361 9.6826-13.563 18.39-31.676 25.013-3.8317 1.401-9.935 3.2548-10.72 3.256-0.13999 1.6e-4 -0.44138-0.14659-0.66977-0.32623zm21.197-9.6129c4.4953-2.252 8.3197-5.8454 10.135-9.5233 1.8068-3.66 1.6267-6.8323-0.56984-10.035l-0.68369-0.99678-0.099 1.6547c-0.12369 2.0668-0.34934 3.2935-0.95666 5.2006-0.90175 2.8316-2.497 5.8206-4.5603 8.5448-1.0051 1.327-4.4566 4.8933-5.8883 6.0842l-0.78797 0.65542 0.62908-0.25335c0.346-0.13934 1.5976-0.73852 2.7813-1.3315zm15.978-11.898c2.5549-3.2442 3.9373-6.5687 4.1238-9.9174 0.0963-1.7296-0.0657-2.7904-0.64057-4.1944-0.74778-1.8262-1.7879-3.1096-5.605-6.916-4.0457-4.0344-5.3527-5.6303-6.3882-7.8009-1.0838-2.2718-1.2615-3.1007-1.2496-5.831 0.0115-2.6333 0.26974-3.8052 1.3916-6.315l0.55852-1.2495-0.64808 0.70917c-4.6967 5.1394-7.3798 10.744-7.4316 15.523-0.0187 1.7228 0.21341 2.7574 0.98985 4.4126 0.90373 1.9266 1.9402 3.2545 5.2436 6.7179 4.3868 4.5995 5.0531 5.426 6.1699 7.6539 0.83525 1.6662 1.0992 2.8527 1.0974 4.9334-3e-3 2.0098-0.31378 3.4334-1.1634 5.3072-0.25936 0.57204-0.47159 1.0821-0.47159 1.1334 0 0.21568 3.1023-2.9971 4.0233-4.1665zm2.6784-26.862c3.0118-2.2637 7.2844-4.5643 11.98-6.4504 2.0334-0.81683 2.2699-0.94796 1.8699-1.0364-0.86801-0.19192-2.4317-0.71071-3.3015-1.0954-1.1465-0.50703-3.2575-1.8972-4.2618-2.8066l-0.80158-0.72578-2.1139 1.0665c-3.672 1.8526-6.7605 3.9734-8.9759 6.1635-1.2259 1.2119-2.6724 3.0398-2.6724 3.3771 0 0.27939 1.5894 2.1879 3.1179 3.7439l1.3425 1.3666 1.1784-1.2527c0.64815-0.68899 1.8356-1.7466 2.6388-2.3503zm-9.0969-4.4717c0.53545-0.78641 2.6886-2.9194 4.0874-4.0491 1.4835-1.1981 4.1194-2.935 5.65-3.7229l1.1258-0.57955 0.0928-1.1908c0.25848-3.3179 1.6842-8.4275 3.4192-12.254 0.25845-0.56994 0.46987-1.1041 0.46987-1.187 0-0.26314-4.2308 2.3288-7.0184 4.2998-1.4753 1.0431-1.9564 1.5002-3.1728 3.0141-2.7211 3.3866-4.6748 6.8063-5.4312 9.5066-0.45902 1.6386-0.49144 3.9326-0.0785 5.5552 0.15994 0.62841 0.33634 1.1421 0.39202 1.1415 0.0557-6.9e-4 0.26441-0.24079 0.46389-0.53375z" fill="#4c310f" stroke-width=".15759"/>
  <g transform="matrix(4.1795 0 0 4.1795 132.24 455.13)">
    <path d="m15.309 28.7-10.231-12.363s-1.5567-1.4697 0.13135-1.4697h5.7652v-2.5134-15.483s-0.22897-0.87685 1.0916-0.87685h8.1153c0.9514 0 0.9301 0.7384 0.9301 0.7384v15.517 2.2471h5.3214c2.0483 0 0.50587 1.5389 0.50587 1.5389s-8.7046 11.555-9.9187 12.768c-0.8733 0.87862-1.7111-0.10295-1.7111-0.10295z" fill="#e8cd5d" stroke="#000" stroke-width=".32826"/>
  </g>
</svg>
